<svg width="24" height="24" viewBox="0 0 24 24" fill="none" xmlns="http://www.w3.org/2000/svg">
<g id="Frame">
<path id="Vector" d="M19.5 22.4999C20.2956 22.4999 21.0587 22.1839 21.6213 21.6212C22.1839 21.0586 22.5 20.2956 22.5 19.4999V11.3259L15.621 15.3479L19.106 17.2239C19.2812 17.3183 19.4117 17.4785 19.4688 17.6691C19.5259 17.8597 19.5049 18.0653 19.4105 18.2404C19.3161 18.4156 19.1559 18.5461 18.9653 18.6032C18.7747 18.6603 18.5692 18.6393 18.394 18.5449L12.711 15.4849C12.4925 15.3673 12.2482 15.3057 12 15.3057C11.7518 15.3057 11.5075 15.3673 11.289 15.4849L5.606 18.5449C5.43131 18.6353 5.2281 18.6535 5.04015 18.5955C4.8522 18.5375 4.69455 18.408 4.60117 18.2349C4.5078 18.0618 4.48616 17.8589 4.54094 17.67C4.59571 17.4811 4.7225 17.3212 4.894 17.2249L8.379 15.3479L1.5 11.3259V19.4999C1.5 20.2956 1.81607 21.0586 2.37868 21.6212C2.94129 22.1839 3.70435 22.4999 4.5 22.4999H19.5Z" fill="url(#paint0_linear_295_9529)"/>
<path id="Vector_2" d="M1.5 9.58909V8.84409C1.49992 8.30226 1.64659 7.77052 1.92443 7.30534C2.20227 6.84016 2.6009 6.45892 3.078 6.20209L10.578 2.16409C11.0151 1.92882 11.5036 1.80566 12 1.80566C12.4964 1.80566 12.9849 1.92882 13.422 2.16409L20.922 6.20209C21.3991 6.45892 21.7977 6.84016 22.0756 7.30534C22.3534 7.77052 22.5001 8.30226 22.5 8.84409V9.58909L14.074 14.5151L13.422 14.1641C12.9849 13.9288 12.4964 13.8057 12 13.8057C11.5036 13.8057 11.0151 13.9288 10.578 14.1641L9.926 14.5151L1.5 9.58909Z" fill="url(#paint1_linear_295_9529)"/>
</g>
<defs>
<linearGradient id="paint0_linear_295_9529" x1="3.285" y1="11.6053" x2="9.44263" y2="26.8839" gradientUnits="userSpaceOnUse">
<stop stop-color="#EC8154"/>
<stop offset="1" stop-color="#E21D1D"/>
</linearGradient>
<linearGradient id="paint1_linear_295_9529" x1="3.285" y1="2.1234" x2="10.9371" y2="18.8164" gradientUnits="userSpaceOnUse">
<stop stop-color="#EC8154"/>
<stop offset="1" stop-color="#E21D1D"/>
</linearGradient>
</defs>
</svg>
