<svg width="40" height="35" viewBox="0 0 40 35" fill="none" xmlns="http://www.w3.org/2000/svg">
<path id="Vector" d="M34.7076 19.4462V8.98471H32.1845L31.2615 3.69225L28 4.2461L26.4615 0L0.307759 8.98506V9.04673L0 9.04645V30.1545H25.723C26.9538 32.616 29.5384 34.2776 32.4307 34.2776C36.6154 34.2162 40 30.8317 40 26.6468C40 23.3237 37.7846 20.4313 34.7075 19.4467L34.7076 19.4462ZM31.2615 8.98471H5.78416L30.5229 4.73861L31.2615 8.98471ZM27.1384 4.43082L5.59965 8.12306L25.9077 1.16909L27.1384 4.43082ZM0.922478 29.231V9.908H33.8463V19.2616C33.4155 19.2 32.9233 19.1386 32.4925 19.1386C32.1233 19.1386 31.6926 19.2003 31.3231 19.2616V15.2H30.8923C29.6616 15.2 28.6769 14.2153 28.6769 12.9845V12.5537L6.15386 12.554V12.9848C6.15386 14.2155 5.16921 15.2002 3.93841 15.2002H3.44622V24.0617H3.87703C5.10775 24.0617 6.09247 25.0464 6.09247 26.2772V26.6463H24.8619C24.8619 27.5079 25.0466 28.3696 25.2927 29.1695H0.923235L0.922478 29.231ZM24.9227 25.7848H7.01467C6.82996 24.431 5.72223 23.3233 4.36843 23.1386V16.0001C5.72223 15.8154 6.82995 14.7077 7.01467 13.3539H27.7534C27.9381 14.7077 29.0458 15.8154 30.3996 16.0001V19.3846C27.5073 20.2462 25.2919 22.7077 24.9224 25.7848H24.9227ZM32.4306 33.2927C28.7383 33.2927 25.7843 30.3388 25.7843 26.6465C25.7843 22.9542 28.7383 20.0002 32.4306 20.0002C36.1229 20.0002 39.0768 23.0156 39.0768 26.6465C39.0768 30.2774 36.1229 33.2927 32.4306 33.2927Z" fill="white"/>
</svg>
