<svg width="34" height="16" viewBox="0 0 34 16" fill="none" xmlns="http://www.w3.org/2000/svg">
<path id="Vector" d="M33.6562 0.567954C32.2616 -0.268589 30.3852 -0.10002 29.1959 0.968112L27.0074 2.93723L23.4066 4.55739C23.1188 4.22652 22.6749 4.01668 22.1878 4.01668L14.377 4.01696C12.8659 3.45192 11.1054 2.71918 9.44211 3.09955L5.6277 3.7842C4.72169 3.94512 3.90507 4.36196 3.27554 4.98186C3.24694 5.00901 3.18675 5.06614 0.151751 8.56745C-0.0821233 8.83781 -0.0410059 9.2374 0.242916 9.45937C0.528334 9.68222 0.948115 9.6432 1.18256 9.37284C2.34659 8.02981 4.12101 5.9846 4.22741 5.86949C4.67192 5.432 5.24096 5.14213 5.87377 5.02933L9.68757 4.34439C11.2558 3.96375 12.8245 4.92922 14.2542 5.28359H22.1878C22.335 5.27568 22.4235 5.39728 22.4425 5.53415C22.8358 7.02958 20.8412 7.86894 19.3539 8.17323L11.4737 9.95006L11.7827 11.1825L19.6644 9.40592C22.0112 8.96362 23.988 7.54142 23.8142 5.77618L27.6754 4.03866C27.7386 4.01009 27.7973 3.97248 27.8482 3.9261L30.1136 1.88828C30.697 1.36425 31.5417 1.18298 32.304 1.37557L28.4855 6.77252C28.6279 7.05985 21.1011 12.0162 20.7838 12.3055C20.241 12.6811 19.5664 12.8875 18.8848 12.8875L9.91471 12.8872C9.11182 12.8872 8.38306 13.2608 7.96533 13.8864L7.20353 15.0272C6.74561 15.7232 7.85242 16.4075 8.33087 15.7051L9.09268 14.5642C9.26399 14.3075 9.57115 14.1542 9.91433 14.1542H18.8844C19.847 14.1542 20.8004 13.8609 21.5703 13.3284C22.3297 12.6938 29.2812 8.27535 29.5984 7.47248L33.8541 1.45675C34.0632 1.17282 33.9706 0.747209 33.6568 0.56794L33.6562 0.567954Z" fill="white"/>
</svg>
