<svg width="36" height="14" viewBox="0 0 36 14" fill="none" xmlns="http://www.w3.org/2000/svg">
<path id="Vector" d="M31.7979 1.7187L26.185 4.64225C25.9405 3.94569 25.4725 3.33935 24.8467 2.90835C24.221 2.47735 23.4688 2.24333 22.6959 2.23912H18.3637C17.658 2.23797 16.9619 2.08376 16.3284 1.78824L15.8816 1.57946C14.6134 0.982373 13.194 0.7362 11.7855 0.869069C10.3771 1.00194 9.03632 1.50849 7.91649 2.33085C7.90625 2.33827 7.89633 2.34614 7.8868 2.35431L6.80813 3.28204C6.37071 3.65632 5.84864 3.93015 5.28219 4.08242C5.23316 4.04387 5.1764 4.0152 5.11534 3.99816C5.05428 3.98111 4.99022 3.97604 4.92703 3.98326L0.760627 4.48208C0.642551 4.49628 0.534577 4.5526 0.458611 4.63964C0.382645 4.72668 0.344375 4.83792 0.351565 4.95078L0.890627 13.5898C0.89768 13.7032 0.950056 13.8097 1.03704 13.8876C1.12403 13.9655 1.23906 14.0089 1.3586 14.0089C1.37908 14.0089 1.39954 14.0076 1.41985 14.005L7.67828 13.2213C7.74322 13.2131 7.80564 13.1922 7.86152 13.1597C7.9174 13.1273 7.9655 13.0841 8.00272 13.0329C8.03995 12.9817 8.06546 12.9236 8.07763 12.8625C8.0898 12.8014 8.08834 12.7385 8.07336 12.6779L8.05399 12.5996L11.2904 10.6221C11.7195 10.3918 12.2258 10.3282 12.7031 10.4446L19.2452 11.6098C21.0141 11.9155 22.8396 11.6665 24.4465 10.9003L35.7677 3.39278C35.8646 3.32847 35.9324 3.23176 35.9574 3.12202C35.9825 3.01228 35.9629 2.8976 35.9027 2.80096C35.5027 2.14721 34.8493 1.66803 34.0823 1.4658C33.3153 1.26357 32.4954 1.35434 31.7979 1.7187ZM1.79617 13.0591L1.31313 5.31378L4.65149 4.91411L7.0343 12.4032L1.79617 13.0591ZM24.3501 9.88328C24.0744 10.0687 23.7773 10.2235 23.4647 10.3449C22.1807 10.8341 20.7775 10.9691 19.4164 10.7341L12.9198 9.57794C12.2074 9.40789 11.4533 9.50655 10.8157 9.85322C10.8084 9.85723 10.8011 9.86139 10.794 9.86576L7.79031 11.701L5.63071 4.91367C6.30035 4.71911 6.91705 4.38766 7.4375 3.94259L8.50156 3.02703C9.4826 2.31065 10.6555 1.87011 11.887 1.75548C13.1184 1.64085 14.3591 1.85673 15.4678 2.37858L15.9145 2.58743C16.6768 2.94295 17.5145 3.12843 18.3637 3.12974H22.6959C24.0488 3.12974 25.1769 4.08071 25.4058 5.32936L22.2431 5.1911C21.1066 5.1415 19.9676 5.19194 18.8408 5.34176C18.7261 5.35587 18.6206 5.40901 18.544 5.49133C18.4674 5.57365 18.4248 5.67956 18.4241 5.78945C18.4248 5.85276 18.4398 5.91519 18.4679 5.97258C18.4961 6.02997 18.5368 6.081 18.5873 6.12226C18.6379 6.16351 18.6971 6.19406 18.7611 6.21184C18.8251 6.22963 18.8923 6.23425 18.9583 6.22541C20.0318 6.08215 21.117 6.03373 22.2 6.08076L25.8953 6.2424C25.9068 6.24285 25.9182 6.243 25.9298 6.2424C25.9862 6.2412 26.0418 6.23013 26.0939 6.20975C26.1801 6.17617 26.2537 6.11903 26.3056 6.04558C26.3575 5.97214 26.3853 5.8857 26.3853 5.79724C26.3853 5.7156 26.3814 5.63522 26.3758 5.55507L32.2487 2.49903C32.6671 2.28049 33.1512 2.20333 33.6218 2.28018C34.0924 2.35703 34.5216 2.58334 34.8392 2.92208L24.3501 9.88328Z" fill="white"/>
</svg>
